<svg width="800" height="450" viewBox="0 0 800 450" fill="none" xmlns="http://www.w3.org/2000/svg">
<rect width="800" height="411" fill="#764234"/>
<path d="M100 400C100 427.614 77.6142 450 50 450C22.3858 450 0 427.614 0 400C4 400 22.3858 400 50 400C100 400 100 400 100 400Z" fill="#764234"/>
<path d="M200 400C200 427.614 177.614 450 150 450C122.386 450 100 427.614 100 400C104 400 122.386 400 150 400C200 400 200 400 200 400Z" fill="#764234"/>
<path d="M300 400C300 427.614 277.614 450 250 450C222.386 450 200 427.614 200 400C204 400 222.386 400 250 400C300 400 300 400 300 400Z" fill="#764234"/>
<path d="M400 400C400 427.614 377.614 450 350 450C322.386 450 300 427.614 300 400C304 400 322.386 400 350 400C400 400 400 400 400 400Z" fill="#764234"/>
<path d="M500 400C500 427.614 477.614 450 450 450C422.386 450 400 427.614 400 400C404 400 422.386 400 450 400C500 400 500 400 500 400Z" fill="#764234"/>
<path d="M600 400C600 427.614 577.614 450 550 450C522.386 450 500 427.614 500 400C504 400 522.386 400 550 400C600 400 600 400 600 400Z" fill="#764234"/>
<path d="M700 400C700 427.614 677.614 450 650 450C622.386 450 600 427.614 600 400C604 400 622.386 400 650 400C700 400 700 400 700 400Z" fill="#764234"/>
<path d="M800 400C800 427.614 777.614 450 750 450C722.386 450 700 427.614 700 400C704 400 722.386 400 750 400C800 400 800 400 800 400Z" fill="#764234"/>
</svg>
