<svg width="395" height="244" viewBox="0 0 395 244" fill="none" xmlns="http://www.w3.org/2000/svg">
<path d="M8.54492 102.341C8.54492 92.5103 8.69141 84.9582 8.98438 79.6847H8.93555L1.95312 78.6594C1.52995 77.4549 1.20443 76.1203 0.976562 74.6554C0.748698 73.1906 0.634766 71.7746 0.634766 70.4074C0.634766 69.3657 0.716146 68.2264 0.878906 66.9894C4.88281 65.5571 10.4004 64.4992 17.4316 63.8156C24.4629 63.132 31.2337 62.7902 37.7441 62.7902C42.7246 62.7902 47.0052 63.1808 50.5859 63.9621C54.1667 64.7433 57.1615 66.5174 59.5703 69.2844C62.0117 72.0187 63.2324 76.1203 63.2324 81.589C63.2324 84.3234 62.6465 87.5135 61.4746 91.1594C60.3353 94.7726 58.8704 98.3045 57.0801 101.755C55.3223 105.173 53.5482 107.94 51.7578 110.056C49.1211 113.213 46.1914 115.069 42.9688 115.622C37.6302 116.469 31.9824 116.892 26.0254 116.892C25.8952 120.245 25.8464 122.653 25.8789 124.118L33.1543 123.63C34.6517 126.071 35.4818 128.969 35.6445 132.321C35.6445 132.484 34.9121 133.184 33.4473 134.421C31.9824 135.658 30.0456 136.797 27.6367 137.839C25.2604 138.881 22.526 139.402 19.4336 139.402C16.3737 139.402 13.9323 138.571 12.1094 136.911C10.319 135.219 9.42383 132.305 9.42383 128.171C8.87044 121.4 8.59375 112.806 8.59375 102.39L8.54492 102.341ZM39.4531 103.171C40.2995 99.5903 40.9993 95.798 41.5527 91.7941C42.1387 87.7577 42.4642 84.242 42.5293 81.2472C42.3665 80.9543 41.5365 80.6939 40.0391 80.466C38.5417 80.2381 36.6048 80.1242 34.2285 80.1242C32.5684 80.1242 30.5013 80.1893 28.0273 80.3195C27.7344 90.1502 27.3438 98.0441 26.8555 104.001L39.4531 103.171Z" fill="#F9F1DE"/>
<path d="M12.9297 180.362C12.9561 170.498 13.1228 162.93 13.4298 157.658L13.381 157.658L5.91306 156.612C5.4931 155.407 5.1711 154.087 4.94707 152.655C4.72312 151.189 4.61297 149.773 4.61663 148.406C4.61941 147.364 4.70383 146.225 4.8699 144.988C8.84481 143.664 14.0396 142.653 20.4542 141.954C26.869 141.222 32.9897 140.864 38.8166 140.88C43.797 140.893 48.0765 141.295 51.6552 142.086C55.2339 142.844 58.2241 144.577 60.6257 147.286C63.0599 149.962 64.27 153.952 64.2558 159.258C64.2502 161.342 63.6743 163.7 62.5279 166.334C61.3816 168.935 59.8777 171.389 58.016 173.695C56.187 175.969 54.278 177.721 52.2891 178.953C54.7619 179.383 57.0545 180.252 59.1669 181.559C61.3119 182.835 63.0488 184.581 64.3775 186.798C65.7063 188.982 66.3667 191.572 66.3587 194.567C66.348 198.571 65.5738 202.019 64.0361 204.912C62.4985 207.805 60.3111 210.192 57.474 212.072C51.9303 215.736 44.113 217.554 34.0218 217.527C30.0505 217.517 26.5188 217.426 23.4268 217.255C20.3673 217.117 17.536 216.849 14.9329 216.451C13.5533 208.895 12.8856 196.865 12.9297 180.362ZM40.721 177.36C41.5737 174.986 42.2979 171.976 42.8936 168.332C43.5219 164.655 43.9043 161.662 44.0406 159.351C43.8787 159.057 43.0492 158.811 41.5524 158.612C40.0556 158.38 38.1191 158.261 35.7428 158.254C34.9941 158.252 33.7407 158.298 31.9826 158.391C31.7026 165.714 31.2944 172.289 30.758 178.114L35.6907 177.737L40.721 177.36ZM38.2064 204.746C40.9408 204.753 42.8942 204.644 44.0667 204.419C44.8818 203.933 45.6003 203.056 46.2222 201.788C46.8766 200.521 47.3686 199.139 47.6981 197.642C48.0277 196.113 48.1941 194.746 48.1973 193.542C47.6159 191.847 44.7048 190.993 39.4639 190.979C37.2504 190.973 34.7109 191.113 31.8456 191.398C31.0641 191.494 30.478 191.541 30.0874 191.54L29.9218 198.669C29.8874 199.385 29.8526 200.215 29.8175 201.159C29.7825 202.103 29.7634 203.161 29.7602 204.332C31.908 204.599 34.2513 204.735 36.7904 204.742L38.2064 204.746ZM100.321 203.642C100.325 202.242 100.366 198.808 100.446 193.34C100.572 182.598 100.637 176.722 100.64 175.713L96.1495 174.969C95.536 173.112 95.1012 171.369 94.8451 169.741C94.589 168.112 94.4632 166.468 94.4676 164.808C94.4695 164.124 94.4871 163.604 94.5207 163.246C95.0753 162.759 95.9395 162.175 97.1132 161.495C98.2869 160.814 99.672 160.216 101.268 159.699C102.865 159.15 104.493 158.878 106.153 158.882C110.027 158.892 112.824 159.763 114.545 161.492C116.298 163.222 117.17 165.747 117.161 169.068C117.156 171.086 116.889 173.673 116.359 176.829C115.863 179.953 115.352 182.181 114.828 183.515L116.585 183.812L119.544 172.785C120.859 167.808 122.497 164.264 124.455 162.154C126.414 160.01 128.614 158.942 131.056 158.949C132.651 158.953 134.229 159.201 135.79 159.694C137.384 160.186 138.603 160.792 139.447 161.51C140.353 163.531 140.802 166.218 140.793 169.57C140.787 171.914 140.553 174.241 140.091 176.551C139.629 178.828 139.038 180.666 138.318 182.064L128.068 180.669C125.979 182.877 123.757 185.947 121.403 189.88C119.049 193.78 117.167 197.372 115.759 200.656L115.703 203.195L125.182 200.974C126.77 203.42 127.69 206.319 127.942 209.673C127.941 209.868 127.207 210.664 125.738 212.06C124.269 213.455 122.329 214.752 119.917 215.95C117.538 217.116 114.802 217.694 111.709 217.686C108.519 217.678 105.852 216.824 103.708 215.126C101.597 213.395 100.482 210.495 100.362 206.425C100.331 205.937 100.317 205.009 100.321 203.642ZM167.308 188.05C167.324 182.158 168.282 177.049 170.181 172.725C172.081 168.401 174.987 165.056 178.899 162.69C182.812 160.291 187.714 159.1 193.606 159.116C200.117 159.133 205.224 160.368 208.928 162.819C212.633 165.238 215.212 168.597 216.665 172.898C218.151 177.199 218.886 182.458 218.869 188.676C218.854 194.307 217.848 199.334 215.85 203.755C213.885 208.145 210.914 211.62 206.936 214.181C202.99 216.709 198.153 217.966 192.424 217.951C183.569 217.927 177.164 215.192 173.207 209.745C169.25 204.266 167.284 197.034 167.308 188.05ZM194.464 203.649C196.124 203.654 197.133 203.526 197.492 203.267C198.244 201.967 198.819 200.129 199.216 197.754C199.613 195.379 199.815 192.808 199.822 190.041C199.829 187.502 199.673 185.125 199.353 182.911C199.034 180.664 198.583 178.905 198 177.633C197.643 177.209 196.928 176.898 195.854 176.7C194.781 176.469 193.609 176.352 192.34 176.349C190.679 176.344 189.54 176.52 188.92 176.877C187.285 179.672 186.461 183.56 186.448 188.54C186.441 190.884 186.614 193.277 186.965 195.719C187.317 198.162 187.767 200.376 188.315 202.364C188.704 202.788 189.501 203.115 190.705 203.346C191.909 203.545 193.162 203.646 194.464 203.649ZM253.07 199.9C255.931 201.047 258.224 201.932 259.947 202.555C261.671 203.178 263.558 203.72 265.607 204.181C267.689 204.643 269.756 204.876 271.807 204.882C272.718 204.884 273.369 204.804 273.76 204.643C273.858 204.513 273.94 204.318 274.006 204.057C274.104 203.765 274.154 203.472 274.155 203.179C274.157 202.528 273.784 201.99 273.036 201.565C271.866 200.91 269.785 199.879 266.794 198.472C262.698 196.508 259.447 194.757 257.043 193.221C254.67 191.685 252.658 189.645 251.004 187.101C249.384 184.558 248.578 181.366 248.589 177.525C248.603 172.023 250.259 167.617 253.556 164.305C256.852 160.961 262.065 159.299 269.194 159.318C277.69 159.341 284.295 160.465 289.009 162.691C289.235 163.636 289.345 164.824 289.341 166.256C289.334 168.991 288.903 171.789 288.049 174.651C287.196 177.481 286.083 179.578 284.712 180.941C282.859 180.318 280.241 179.318 276.859 177.942C274.388 176.959 272.42 176.205 270.957 175.68C269.526 175.123 268.209 174.729 267.005 174.498C266.353 174.659 265.832 175.048 265.439 175.665C265.047 176.25 264.85 176.949 264.848 177.763C264.846 178.479 265.056 179.082 265.478 179.572C265.9 180.061 266.37 180.453 266.891 180.747C267.443 181.009 268.223 181.369 269.231 181.828C269.752 182.057 270.239 182.27 270.695 182.466C271.15 182.63 271.573 182.794 271.963 182.958C274.499 184.039 276.499 184.923 277.962 185.611C279.425 186.298 280.838 187.116 282.203 188.064C284.705 189.796 286.669 191.77 288.095 193.988C289.522 196.205 290.231 198.632 290.224 201.269C290.215 204.915 289.165 208.069 287.074 210.733C285.016 213.364 282.374 215.278 279.149 216.474C277.454 217.087 275.598 217.522 273.579 217.777C271.592 218.065 269.264 218.205 266.595 218.198C263.438 218.189 260.184 217.578 256.834 216.365C253.517 215.119 250.984 213.062 249.234 210.192C249.271 208.207 249.537 206.482 250.029 205.019C250.554 203.523 251.567 201.816 253.07 199.9ZM332.033 197.767C336.33 197.779 339.452 198.731 341.4 200.624C343.381 202.485 344.367 204.831 344.36 207.663C344.355 209.551 343.748 211.324 342.539 212.981C341.363 214.605 339.813 215.903 337.89 216.875C335.999 217.846 334.029 218.329 331.978 218.324C329.927 218.318 327.943 217.825 326.025 216.843C324.139 215.861 322.597 214.555 321.397 212.924C320.229 211.261 319.648 209.485 319.653 207.597C319.661 204.765 320.643 202.424 322.601 200.574C324.592 198.691 327.736 197.756 332.033 197.767Z" fill="#F9F1DE"/>
<path d="M77.6325 79.3061C78.2484 73.4464 79.7214 68.4624 82.0517 64.3541C84.3819 60.2457 87.6136 57.214 91.7469 55.2591C95.8835 53.2717 100.882 52.586 106.741 53.2019C113.216 53.8824 118.171 55.6306 121.607 58.4465C125.045 61.2301 127.269 64.8351 128.276 69.2616C129.316 73.6914 129.511 78.998 128.862 85.1814C128.273 90.7821 126.76 95.6801 124.322 99.8753C121.92 104.042 118.61 107.196 114.392 109.338C110.209 111.452 105.269 112.209 99.5713 111.61C90.7656 110.685 84.6721 107.311 81.2908 101.49C77.9128 95.6358 76.6934 88.2412 77.6325 79.3061ZM103.058 97.5912C104.709 97.7648 105.726 97.7408 106.109 97.5192C106.99 96.3025 107.749 94.5329 108.386 92.2105C109.023 89.888 109.486 87.3509 109.775 84.5992C110.04 82.074 110.127 79.6937 110.034 77.4583C109.945 75.1904 109.676 73.3946 109.226 72.0708C108.914 71.6125 108.234 71.2301 107.186 70.9236C106.142 70.5847 104.988 70.3489 103.726 70.2162C102.075 70.0426 100.923 70.1016 100.27 70.3931C98.3589 73.0071 97.1429 76.7907 96.6223 81.7439C96.3774 84.0748 96.3053 86.473 96.4062 88.9384C96.5072 91.4039 96.729 93.6529 97.0718 95.6856C97.4161 96.1473 98.1752 96.5544 99.3492 96.9069C100.527 97.227 101.763 97.4551 103.058 97.5912Z" fill="#FDFF92"/>
<path d="M66.5853 45.0779C66.9801 44.1859 67.9713 42.2047 69.5587 39.1344C71.1611 36.0657 72.7352 33.122 74.2812 30.3033C75.8435 27.4713 76.8594 25.7562 77.3288 25.1582C77.7998 24.8312 78.7121 24.6034 80.0657 24.4747C81.4357 24.3326 82.7089 24.3234 83.8854 24.447C84.4215 24.5034 84.8643 24.5876 85.2139 24.6996L91.0464 47.423C90.8254 47.8063 90.3921 48.2049 89.7463 48.6188C89.1005 49.0328 88.3866 49.3793 87.6044 49.6585C86.8223 49.9376 86.1451 50.0772 85.5729 50.0773L79.3655 35.2191L71.3214 48.5794C70.7304 48.4721 70.1014 48.2253 69.4343 47.839C68.7822 47.4543 68.1892 47.008 67.6553 46.5002C67.1364 45.994 66.7797 45.5199 66.5853 45.0779Z" fill="#FDFF92"/>
<path d="M275.454 39.6654C275.615 38.7032 276.082 36.5379 276.856 33.1693C277.645 29.7985 278.438 26.5558 279.234 23.4412C280.043 20.3096 280.601 18.3958 280.907 17.6998C281.282 17.266 282.109 16.8185 283.388 16.3572C284.679 15.8789 285.91 15.5533 287.081 15.3805C287.614 15.3018 288.064 15.2732 288.43 15.2948L299.73 35.854C299.611 36.2802 299.291 36.7741 298.768 37.3356C298.246 37.8971 297.64 38.4103 296.952 38.8752C296.264 39.34 295.643 39.6437 295.089 39.786L285.381 26.9382L280.912 41.8792C280.313 41.9223 279.643 41.8396 278.9 41.6314C278.173 41.4209 277.488 41.1361 276.844 40.777C276.216 40.4157 275.753 40.0452 275.454 39.6654Z" fill="#FDFF92"/>
<path d="M147.924 107.669C147.924 102.363 147.989 98.3593 148.119 95.6574C148.25 92.9231 148.591 88.9192 149.145 83.6457L143.53 82.9133C142.846 80.7974 142.39 78.9094 142.162 77.2492C141.967 75.5891 141.869 73.4406 141.869 70.8039C142.39 70.3482 143.253 69.8111 144.457 69.1926C145.694 68.5416 147.143 67.9882 148.803 67.5324C150.496 67.0442 152.205 66.8 153.93 66.8C157.869 66.8 160.652 67.6464 162.28 69.3391C163.94 71.0318 164.77 73.5709 164.77 76.9563C164.77 78.8443 164.493 81.3996 163.94 84.6223C163.028 89.7981 162.573 92.5162 162.573 92.7766C162.573 92.9393 162.686 93.1021 162.914 93.2649C163.142 93.3951 163.386 93.4602 163.647 93.4602C163.94 93.4602 164.135 93.3462 164.233 93.1184C164.2 93.2486 164.574 91.6047 165.356 88.1867C166.3 83.6945 167.26 80.0324 168.237 77.2004C169.246 74.3684 170.841 71.9432 173.022 69.925C175.203 67.9068 178.165 66.8977 181.908 66.8977C186.531 66.8977 189.867 68.2323 191.918 70.9016C193.969 73.5383 194.994 77.0539 194.994 81.4485C194.994 84.9315 194.408 88.8052 193.237 93.0695C193.237 93.2323 193.351 93.3951 193.578 93.5578C193.806 93.688 194.05 93.7531 194.311 93.7531C194.604 93.7531 194.799 93.6392 194.897 93.4113L195.58 90.677C196.752 85.8593 197.908 81.8554 199.047 78.6653C200.219 75.4751 201.961 72.7245 204.272 70.4133C206.615 68.0695 209.659 66.8977 213.403 66.8977C218.318 66.8977 221.85 68.4765 223.998 71.634C226.179 74.7916 227.27 78.7629 227.27 83.5481C227.27 86.9335 226.944 90.3352 226.293 93.7531C225.675 97.1711 225.007 100.036 224.291 102.347C223.608 104.658 222.761 107.327 221.752 110.355L221.85 110.452L229.076 107.425C231.615 109.606 233.097 112.503 233.52 116.116C233.52 116.344 232.787 117.288 231.323 118.948C229.858 120.576 227.921 122.106 225.512 123.538C223.136 124.938 220.401 125.638 217.309 125.638C214.216 125.638 211.694 124.808 209.74 123.148C207.787 121.488 206.811 118.655 206.811 114.652C206.811 110.192 206.892 105.618 207.055 100.931C207.25 96.2108 207.527 91.9791 207.885 88.2356C207.332 87.7798 206.567 87.5357 205.59 87.5031C204.614 88.4472 203.393 90.5142 201.928 93.7043C200.463 96.8619 199.112 100.247 197.875 103.861C196.638 107.441 195.857 110.241 195.531 112.259C195.987 115.449 196.687 118.607 197.631 121.732C197.045 122.838 195.841 123.766 194.018 124.515C192.195 125.264 189.949 125.638 187.28 125.638C184.871 125.638 182.983 125.443 181.615 125.052C180.248 124.661 179.304 124.254 178.783 123.831C178.295 123.408 178.051 123.131 178.051 123.001C178.018 122.708 177.937 121.943 177.807 120.706C177.677 119.437 177.546 117.679 177.416 115.433C177.286 113.154 177.221 110.566 177.221 107.669C177.221 104.902 177.433 101.435 177.856 97.2688C177.888 96.7479 177.986 95.511 178.149 93.5578C178.311 91.6047 178.393 89.8306 178.393 88.2356C177.839 87.7798 177.074 87.5357 176.098 87.5031C175.545 87.9263 173.998 90.6281 171.459 95.6086C168.92 100.589 167.227 104.105 166.381 106.155C166.316 106.611 166.283 107.051 166.283 107.474C166.283 109.101 166.528 111.299 167.016 114.066C167.504 116.8 168.106 119.355 168.823 121.732C168.237 122.838 167.032 123.766 165.209 124.515C163.386 125.264 161.14 125.638 158.471 125.638C156.062 125.638 154.125 125.443 152.66 125.052C151.228 124.661 150.219 124.254 149.633 123.831C149.047 123.376 148.754 123.099 148.754 123.001C148.722 122.708 148.64 121.943 148.51 120.706C148.38 119.437 148.25 117.679 148.119 115.433C147.989 113.154 147.924 110.566 147.924 107.669Z" fill="#FDFF92"/>
<path d="M239.754 76.5493C239.124 70.6912 239.516 65.5089 240.93 61.0024C242.344 56.4958 244.866 52.8524 248.496 50.072C252.122 47.2592 256.864 45.5377 262.723 44.9076C269.196 44.2114 274.408 44.8785 278.358 46.9091C282.306 48.9073 285.237 51.9642 287.153 56.0797C289.101 60.1918 290.408 65.3388 291.073 71.5206C291.675 77.1198 291.226 82.2264 289.725 86.8405C288.253 91.4187 285.68 95.1986 282.007 98.1801C278.362 101.126 273.692 102.905 267.995 103.518C259.192 104.465 252.525 102.448 247.995 97.4676C243.462 92.4549 240.715 85.4822 239.754 76.5493ZM268.456 89.0791C270.106 88.9015 271.096 88.6642 271.424 88.3669C272.029 86.9923 272.399 85.1027 272.533 82.6982C272.667 80.2938 272.587 77.716 272.291 74.965C272.019 72.4405 271.603 70.0952 271.043 67.9292C270.479 65.7308 269.838 64.0318 269.119 62.8322C268.718 62.4497 267.973 62.2188 266.884 62.1395C265.792 62.0279 264.614 62.0399 263.352 62.1757C261.702 62.3532 260.588 62.6531 260.011 63.0752C258.692 66.0327 258.299 69.9874 258.832 74.9393C259.082 77.2696 259.516 79.6293 260.133 82.0184C260.751 84.4076 261.44 86.5597 262.203 88.4748C262.637 88.8537 263.464 89.0921 264.686 89.1899C265.905 89.2553 267.161 89.2183 268.456 89.0791Z" fill="#FDFF92"/>
<path d="M307.516 110.3C307.516 105.352 308.199 100.616 309.566 96.091C310.966 91.5663 313.147 87.8553 316.109 84.9582C319.104 82.061 322.864 80.6125 327.389 80.6125C332.467 80.6125 337.317 82.2238 341.939 85.4465L342.721 84.9582C342.623 81.1496 342.151 77.6991 341.305 74.6066L331.393 73.9719C330.937 73.3859 330.579 72.5233 330.318 71.384C330.058 70.2121 329.928 69.0077 329.928 67.7707C329.928 66.1105 330.123 64.6782 330.514 63.4738C332.467 62.0741 334.973 61.0161 338.033 60.3C341.093 59.5838 344.153 59.2258 347.213 59.2258C350.598 59.2258 353.154 59.9419 354.879 61.3742C356.604 62.7739 357.76 64.9061 358.346 67.7707C358.964 70.6027 359.273 74.5415 359.273 79.5871C359.273 86.2277 358.997 93.7635 358.443 102.195C357.89 110.626 357.174 117.51 356.295 122.849L356.1 123.679L361.764 121.237C362.708 122.247 363.538 123.484 364.254 124.948C365.003 126.381 365.475 128.041 365.67 129.929C365.214 130.905 364.221 132.159 362.691 133.689C361.161 135.186 359.29 136.521 357.076 137.693C354.863 138.864 352.551 139.45 350.143 139.45C347.441 139.45 345.357 138.653 343.893 137.058C342.46 135.43 341.744 133.363 341.744 130.857C341.744 130.206 341.907 128.871 342.232 126.853C342.59 124.834 342.883 123.435 343.111 122.653L341.646 122.214C339.986 128.041 337.789 132.37 335.055 135.202C332.32 138.034 328.935 139.45 324.898 139.45C320.569 139.45 317.102 138.018 314.498 135.153C311.926 132.256 310.12 128.627 309.078 124.265C308.036 119.903 307.516 115.248 307.516 110.3ZM341.012 109.421C341.207 108.249 341.305 106.882 341.305 105.32C341.305 104.31 341.256 103.35 341.158 102.439C341.093 101.527 341.012 100.876 340.914 100.486C339.612 99.5415 338.131 98.8742 336.471 98.4836C334.843 98.0929 333.346 97.8976 331.979 97.8976C331.132 97.8976 330.221 97.979 329.244 98.1418C328.593 98.7928 328.072 100.209 327.682 102.39C327.291 104.538 327.096 106.963 327.096 109.665C327.096 112.562 327.291 115.378 327.682 118.112C328.105 120.814 328.691 122.93 329.439 124.46C329.96 124.46 330.969 123.663 332.467 122.068C333.997 120.44 335.576 118.454 337.203 116.111C338.831 113.734 340.1 111.504 341.012 109.421Z" fill="#F9F1DE"/>
<path d="M106.147 35.6521C109.067 35.1242 113.858 34.0524 133.987 30.477C148.192 27.9537 174.408 25.3178 192.093 23.6861C218.165 21.2805 231.679 22.5823 239.933 23.6461C245.549 24.7099 249.308 25.2539 252.235 25.5178C253.579 25.7818 254.635 26.3097 257.323 27.6534" stroke="#FDFF92" stroke-width="7" stroke-linecap="round"/>
</svg>
